<?xml version="1.0" encoding="utf-8"?>
<!-- Generator: Adobe Illustrator 18.0.0, SVG Export Plug-In . SVG Version: 6.00 Build 0)  -->
<!DOCTYPE svg PUBLIC "-//W3C//DTD SVG 1.1//EN" "http://www.w3.org/Graphics/SVG/1.1/DTD/svg11.dtd">
<svg version="1.1" id="Layer_1" xmlns="http://www.w3.org/2000/svg" xmlns:xlink="http://www.w3.org/1999/xlink" x="0px" y="0px"
	 viewBox="0 0 512 512" enable-background="new 0 0 512 512" xml:space="preserve">
<g id="_x37_935ec95c421cee6d86eb22ecd1207e1">
	<path d="M252.2,24.7c4.2,2.6,9,6.4,14.2,11.5c5.1,5.2,10,11.7,14.9,19.3c4.6,7.2,8.7,15.7,12.3,25.5c2.9,9.8,4.4,21.3,4.4,34.4
		c-0.4,24-5.7,43.2-15.9,57.6c-5,7-10.3,13.4-15.9,19.3c-6.2,5.9-12.8,11.9-19.8,18c-4,4.1-7.7,8.8-11.1,14.1c-4,5.5-6,11.8-6,19
		c0,7,2,12.8,6.2,17.4c3.5,4.4,6.9,8.2,10.1,11.5l22.8,18.7c14.2,11.6,26.6,24.3,37.2,38.3c10.1,14.2,15.3,32.7,15.7,55.6
		c0,32.5-14.4,61.3-43.1,86.4c-29.8,26-72.7,39.4-128.9,40.3c-47-0.4-82.1-10.5-105.3-30.1C20.7,463.1,9,441.2,9,415.8
		c0-12.4,3.8-26.2,11.4-41.5c7.4-15.3,20.7-28.7,40.1-40.2c21.7-12.4,44.6-20.7,68.5-24.8c23.7-3.5,43.4-5.4,59-5.9
		c-4.8-6.4-9.1-13.2-12.9-20.4c-4.4-7-6.6-15.5-6.6-25.4c0-5.9,0.8-10.9,2.5-14.8c1.5-4.2,2.8-8,4.1-11.5
		c-7.6,0.9-14.8,1.3-21.6,1.3c-35.7-0.4-63-11.7-81.7-33.7c-19.6-20.5-29.4-44.4-29.4-71.7c0-33,13.9-62.8,41.7-89.7
		c19.1-15.7,38.9-26,59.5-30.8C164,2.6,183,0.5,200.8,0.5h134.2l-41.4,24.2L252.2,24.7L252.2,24.7z M278.2,411
		c0-17-5.6-31.9-16.7-44.5c-11.8-12-30.1-26.7-55.1-44.2c-4.3-0.4-9.3-0.7-15.1-0.7c-3.4-0.4-12.2,0-26.3,1.3
		c-13.9,2-28.1,5.1-42.6,9.5c-3.4,1.3-8.2,3.3-14.4,5.9c-6.2,2.8-12.5,6.9-18.9,12.1c-6.2,5.5-11.4,12.2-15.7,20.3
		c-4.9,8.5-7.4,18.8-7.4,30.8c0,23.6,10.7,43,32.1,58.3c20.3,15.3,48.1,23.1,83.4,23.6c31.6-0.4,55.8-7.4,72.4-21
		C270,449.1,278.2,432,278.2,411z M184.6,214.3c17.7-0.6,32.4-7,44.2-19c5.7-8.5,9.3-17.3,11-26.2c1-9,1.5-16.5,1.5-22.6
		c0-26.5-6.8-53.1-20.3-80c-6.3-12.9-14.7-23.4-25.1-31.5c-10.6-7.6-22.7-11.7-36.5-12.1c-18.2,0.4-33.3,7.8-45.4,22
		c-10.2,14.9-15,31.5-14.6,49.9c0,24.3,7.1,49.5,21.3,75.8c6.9,12.3,15.7,22.6,26.6,31.2C158.2,210,170.6,214.3,184.6,214.3z"/>
</g>
<g>
	<rect x="384.5" y="168" width="50.1" height="176"/>
	<rect x="321.5" y="231" width="176" height="50.1"/>
</g>
</svg>
