<?xml version="1.0" encoding="utf-8"?>
<!-- Generator: Adobe Illustrator 18.1.1, SVG Export Plug-In . SVG Version: 6.00 Build 0)  -->
<svg version="1.1"
	 id="svg21775" xmlns:dc="http://purl.org/dc/elements/1.1/" xmlns:cc="http://creativecommons.org/ns#" xmlns:sodipodi="http://sodipodi.sourceforge.net/DTD/sodipodi-0.dtd" xmlns:inkscape="http://www.inkscape.org/namespaces/inkscape" xmlns:svg="http://www.w3.org/2000/svg" xmlns:rdf="http://www.w3.org/1999/02/22-rdf-syntax-ns#" inkscape:export-filename="/home/chromakode/Documents/code/reddit/reddit-about/reddit_about/public/static/about/assets/reddit-alien.png" sodipodi:docname="reddit-alien.svg" inkscape:export-ydpi="184.19029" inkscape:version="0.48.3.1 r9886" inkscape:export-xdpi="184.19029"
	 xmlns="http://www.w3.org/2000/svg" xmlns:xlink="http://www.w3.org/1999/xlink" x="0px" y="0px" viewBox="-331 263 360 500"
	 enable-background="new -331 263 360 500" xml:space="preserve">
<sodipodi:namedview  borderopacity="1" inkscape:cx="178.3494" fit-margin-top="0" inkscape:cy="235.80988" pagecolor="#ffffff" guidetolerance="10" gridtolerance="10" inkscape:zoom="1" bordercolor="#666666" id="namedview21835" objecttolerance="10" showgrid="false" fit-margin-left="0" fit-margin-bottom="0" fit-margin-right="0" inkscape:current-layer="svg21775" inkscape:window-maximized="0" inkscape:window-y="64" inkscape:window-x="1950" inkscape:window-height="900" inkscape:window-width="1261" inkscape:pageshadow="2" inkscape:pageopacity="0">
	</sodipodi:namedview>
<g id="Layer_2" transform="matrix(12.584949,0,0,12.584949,-584.34433,-1.3717583)">
	
		<ellipse id="ellipse21778" sodipodi:cy="28.417999" sodipodi:cx="65.245003" sodipodi:ry="5.3239999" sodipodi:rx="4.4109998" fill="#FFFFFF" stroke="#000000" stroke-width="1.1" cx="37.7" cy="46" rx="3.6" ry="4.3">
	</ellipse>
	<g id="g21780">
		<g id="g21782">
			<path id="path21784" inkscape:connector-curvature="0" fill="#FFFFFF" d="M32,54.9c0.1-0.2,0.1-0.3,0.1-0.5c0-1.1-1.1-2-2.5-2
				c-1.4,0-2.5,0.9-2.5,2c0,0.2,0,0.3,0.1,0.5H32z"/>
		</g>
		<g id="g21786">
			
				<path id="path21788" inkscape:connector-curvature="0" fill="none" stroke="#000000" stroke-width="1.1" stroke-linecap="round" stroke-linejoin="round" d="
				M32,54.9c0.1-0.2,0.1-0.3,0.1-0.5c0-1.1-1.1-2-2.5-2c-1.4,0-2.5,0.9-2.5,2c0,0.2,0,0.3,0.1,0.5H32z"/>
		</g>
	</g>
	<g id="g21790">
		<g id="g21792">
			<path id="path21794" inkscape:connector-curvature="0" fill="#FFFFFF" d="M40.7,54.9c0.1-0.2,0.1-0.3,0.1-0.5c0-1.1-1.1-2-2.5-2
				c-1.4,0-2.5,0.9-2.5,2c0,0.2,0,0.3,0.1,0.5H40.7z"/>
		</g>
		<g id="g21796">
			
				<path id="path21798" inkscape:connector-curvature="0" fill="none" stroke="#000000" stroke-width="1.1" stroke-linecap="round" stroke-linejoin="round" d="
				M40.7,54.9c0.1-0.2,0.1-0.3,0.1-0.5c0-1.1-1.1-2-2.5-2c-1.4,0-2.5,0.9-2.5,2c0,0.2,0,0.3,0.1,0.5H40.7z"/>
		</g>
	</g>
	
		<circle id="circle21800" sodipodi:cy="11.836" sodipodi:cx="49.683998" sodipodi:ry="2.7019999" sodipodi:rx="2.7019999" fill="#FFFFFF" stroke="#000000" stroke-width="1.1" cx="25" cy="32.6" r="2.2">
	</circle>
	
		<circle id="circle21802" sodipodi:cy="11.836" sodipodi:cx="71.786003" sodipodi:ry="2.7019999" sodipodi:rx="2.7019999" fill="#FFFFFF" stroke="#000000" stroke-width="1.1" cx="43" cy="32.6" r="2.2">
	</circle>
	
		<path id="path21804" inkscape:connector-curvature="0" fill="none" stroke="#000000" stroke-width="1.1" stroke-linecap="round" stroke-linejoin="round" d="
		M40.1,24.9c0,0,0,0-4.4-1l-1.6,5.1"/>
	
		<ellipse id="ellipse21806" sodipodi:cy="28.417999" sodipodi:cx="56.146" sodipodi:ry="5.3239999" sodipodi:rx="4.4109998" fill="#FFFFFF" stroke="#000000" stroke-width="1.1" cx="30.3" cy="46" rx="3.6" ry="4.3">
	</ellipse>
	
		<circle id="circle21808" sodipodi:cy="2.789" sodipodi:cx="70.431" sodipodi:ry="2.1300001" sodipodi:rx="2.1300001" fill="#FFFFFF" stroke="#000000" stroke-width="1.1" cx="41.9" cy="25.2" r="1.7">
	</circle>
	<g id="g21810">
		<g id="g21812">
			<path id="path21814" inkscape:connector-curvature="0" fill="#FFFFFF" d="M32.7,54.9h2.4c2.2-1.1,3.8-5.1,3.8-10
				c0-5.7-2.2-10.3-5-10.3c-2.7,0-5,4.6-5,10.3C29,49.7,30.6,53.7,32.7,54.9z"/>
		</g>
		<g id="g21816">
			<path id="path21818" inkscape:connector-curvature="0" fill="none" stroke="#000000" stroke-width="1.1" d="M32.7,54.9h2.4
				c2.2-1.1,3.8-5.1,3.8-10c0-5.7-2.2-10.3-5-10.3c-2.7,0-5,4.6-5,10.3C29,49.7,30.6,53.7,32.7,54.9z"/>
		</g>
	</g>
	
		<ellipse id="ellipse21820" sodipodi:cy="15.552" sodipodi:cx="60.675999" sodipodi:ry="7.987" sodipodi:rx="12.238" fill="#FFFFFF" stroke="#000000" stroke-width="1.1" cx="34" cy="35.6" rx="9.9" ry="6.5">
	</ellipse>
	
		<line id="line21822" fill="none" stroke="#000000" stroke-width="1.1" stroke-linecap="round" stroke-linejoin="round" x1="31.3" y1="54.9" x2="36.7" y2="54.9"/>
	<g id="g21824">
		<path id="circle21826" inkscape:connector-curvature="0" fill="#FF4500" d="M30.5,32.7c-0.9,0-1.6,0.7-1.6,1.6s0.7,1.6,1.6,1.6
			s1.6-0.7,1.6-1.6S31.4,32.7,30.5,32.7z"/>
		<path id="circle21828" inkscape:connector-curvature="0" fill="#FF4500" d="M37.5,32.7c-0.9,0-1.6,0.7-1.6,1.6s0.7,1.6,1.6,1.6
			s1.6-0.7,1.6-1.6S38.4,32.7,37.5,32.7z"/>
		
			<path id="path21830" inkscape:connector-curvature="0" fill="none" stroke="#000000" stroke-width="1.1" stroke-linecap="round" d="
			M37.5,39.3c-0.9-0.8-2.3-0.8-3.5-0.7"/>
		
			<path id="path21832" inkscape:connector-curvature="0" fill="none" stroke="#000000" stroke-width="1.1" stroke-linecap="round" d="
			M30.6,39.9c0.8-0.9,2.2-1.2,3.3-1.3"/>
	</g>
</g>
<g id="Layer_3" transform="translate(-56.49872,470.00082)">
</g>
<g id="artwork2" transform="translate(1.5,0)">
	<g id="g6">
		<path id="path8" opacity="0.32" enable-background="new    " d="M-121.5,758.8L-16,718.5l-210.5-66.8L-121.5,758.8"/>
		<path id="path10" stroke="#000000" stroke-width="4.8354" stroke-linecap="round" stroke-linejoin="round" d="M-94,573.4
			l-181.7-43.3l-27.7,9.4l3.2,141.7l172.3,73l34.8-22.4l-1.1-158.4H-94z"/>
		
			<linearGradient id="path17_1_" gradientUnits="userSpaceOnUse" x1="-380.0138" y1="517.9976" x2="-252.7646" y2="578.856" gradientTransform="matrix(1.3333 0 0 -1.3333 223.1667 1370)">
			<stop  offset="0" style="stop-color:#D46262"/>
			<stop  offset="1" style="stop-color:#D90F0F"/>
		</linearGradient>
		<path id="path17" fill="url(#path17_1_)" d="M-300.2,681.2l172.3,73V585.1l-175.5-45.5L-300.2,681.2z"/>
		
			<linearGradient id="path24_1_" gradientUnits="userSpaceOnUse" x1="-270.9987" y1="583.7552" x2="-224.9187" y2="461.5269" gradientTransform="matrix(1.3333 0 0 -1.3333 223.1667 1370)">
			<stop  offset="0" style="stop-color:#B22F2F"/>
			<stop  offset="1" style="stop-color:#8C2525"/>
		</linearGradient>
		<path id="path24" fill="url(#path24_1_)" d="M-127.9,754.2V585.1l33.9-11.7l1.1,158.4l-34.8,22.4H-127.9z"/>
		
			<linearGradient id="path31_1_" gradientUnits="userSpaceOnUse" x1="-317.2785" y1="621.6772" x2="-300.5903" y2="398.2217" gradientTransform="matrix(1.3333 0 0 -1.3333 223.1667 1370)">
			<stop  offset="0" style="stop-color:#EB8888"/>
			<stop  offset="1" style="stop-color:#8C2525"/>
		</linearGradient>
		<path id="path31" fill="url(#path31_1_)" d="M-303.4,539.6l175.5,45.5l33.9-11.7l-181.7-43.3L-303.4,539.6L-303.4,539.6z"/>
		<path id="path33" fill="#D4ACAC" d="M-127.9,754.2l3.2-164.1l30.7-16.7l-35.9,11.7l-173.5-45.5l171.9,51l3.7,163.4V754.2z"/>
		<path id="path35" fill="#D4ACAC" d="M-302.7,586.2l172.3,56.8l0.2,5.7L-302.7,589v-2.5V586.2z"/>
		<path id="path37" fill="#D4ACAC" d="M-129.3,699.5l-171.9-65v3.7l172.1,68.4L-129.3,699.5z"/>
		<path id="path39" fill="#D4ACAC" d="M-222.9,616.9v47.4l5.5,2.1v-47.6L-222.9,616.9z"/>
		<path id="path41" fill="#D4ACAC" d="M-267.3,597.9v-47.6l3.4,1.1v47.8l-3.4-1.1V597.9z"/>
		<path id="path43" fill="#D4ACAC" d="M-180.5,576.2v50.3l4.1,1.4v-50.3l-4.1-1.1V576.2z"/>
		<path id="path45" fill="#D4ACAC" d="M-180.5,686.2V732l2.1,0.9v-45.8l-2.1-0.7V686.2z"/>
		<path id="path47" fill="#D4ACAC" d="M-267.3,651.7v43.5l2.5,1.1v-43.5l-2.5-0.9V651.7z"/>
		
			<linearGradient id="path54_1_" gradientUnits="userSpaceOnUse" x1="-329.964" y1="518.2626" x2="-326.8972" y2="531.7847" gradientTransform="matrix(1.3333 0 0 -1.3333 223.1667 1370)">
			<stop  offset="0" style="stop-color:#FFFFFF"/>
			<stop  offset="1" style="stop-color:#D4ACAC"/>
		</linearGradient>
		<path id="path54" fill="url(#path54_1_)" d="M-301.1,638.2l172.1,68.4v-3.9l-172.1-66.4v1.6V638.2z"/>
		
			<linearGradient id="path61_1_" gradientUnits="userSpaceOnUse" x1="-330.691" y1="559.8793" x2="-328.5038" y2="569.5227" gradientTransform="matrix(1.3333 0 0 -1.3333 223.1667 1370)">
			<stop  offset="0" style="stop-color:#FFFFFF"/>
			<stop  offset="1" style="stop-color:#D4ACAC"/>
		</linearGradient>
		<path id="path61" fill="url(#path61_1_)" d="M-130.4,648.9v-2.7l-172.3-58.6v1.4L-130.4,648.9z"/>
		<path id="path63" opacity="0.42" fill="#D4ACAC" enable-background="new    " d="M-126.1,648.3l32.3-14.4v-5.7l-32,14.4v5.7
			H-126.1z"/>
		<path id="path65" opacity="0.42" fill="#D4ACAC" enable-background="new    " d="M-127,699.7l-0.2,6.9l33.6-16v-6.9l-33.6,16H-127
			z"/>
		<path id="path67" fill="#FFFFFF" d="M-262.7,550.1l29.1-9.8l-33.9,8.7L-262.7,550.1z"/>
		<path id="path69" fill="#FFFFFF" d="M-173.9,573l-5-1.1l28.4-11.9l-23.1,13H-173.9z"/>
	</g>
</g>
</svg>
