<?xml version="1.0" encoding="utf-8"?>
<!-- Generator: Adobe Illustrator 18.0.0, SVG Export Plug-In . SVG Version: 6.00 Build 0)  -->
<!DOCTYPE svg PUBLIC "-//W3C//DTD SVG 1.1//EN" "http://www.w3.org/Graphics/SVG/1.1/DTD/svg11.dtd">
<svg version="1.1"
	 id="svg21775" inkscape:export-ydpi="184.19029" inkscape:version="0.48.3.1 r9886" inkscape:export-filename="/home/chromakode/Documents/code/reddit/reddit-about/reddit_about/public/static/about/assets/reddit-alien.png" sodipodi:docname="reddit-alien.svg" inkscape:export-xdpi="184.19029" xmlns:dc="http://purl.org/dc/elements/1.1/" xmlns:cc="http://creativecommons.org/ns#" xmlns:inkscape="http://www.inkscape.org/namespaces/inkscape" xmlns:sodipodi="http://sodipodi.sourceforge.net/DTD/sodipodi-0.dtd" xmlns:svg="http://www.w3.org/2000/svg" xmlns:rdf="http://www.w3.org/1999/02/22-rdf-syntax-ns#"
	 xmlns="http://www.w3.org/2000/svg" xmlns:xlink="http://www.w3.org/1999/xlink" x="0px" y="0px" viewBox="0 0 360 500"
	 enable-background="new 0 0 360 500" xml:space="preserve">
<sodipodi:namedview  bordercolor="#666666" borderopacity="1" pagecolor="#ffffff" objecttolerance="10" gridtolerance="10" guidetolerance="10" fit-margin-left="0" inkscape:cy="235.80988" fit-margin-top="0" inkscape:zoom="1" showgrid="false" inkscape:cx="178.3494" fit-margin-bottom="0" fit-margin-right="0" inkscape:current-layer="svg21775" inkscape:window-maximized="0" inkscape:window-y="64" inkscape:window-x="1950" inkscape:window-height="900" inkscape:window-width="1261" inkscape:pageshadow="2" inkscape:pageopacity="0" id="namedview21835">
	</sodipodi:namedview>
<g id="Layer_2" transform="matrix(12.584949,0,0,12.584949,-584.34433,-1.3717583)">
	
		<ellipse id="ellipse21778" sodipodi:cx="65.245003" sodipodi:cy="28.417999" sodipodi:rx="4.4109998" sodipodi:ry="5.3239999" fill="#FFFFFF" stroke="#000000" stroke-width="1.1" cx="65.2" cy="28.4" rx="4.4" ry="5.3">
	</ellipse>
	<g id="g21780">
		<g id="g21782">
			<path id="path21784" inkscape:connector-curvature="0" fill="#FFFFFF" d="M58.3,39.3c0.1-0.2,0.1-0.4,0.1-0.6
				c0-1.4-1.4-2.5-3-2.5s-3,1.1-3,2.5c0,0.2,0,0.4,0.1,0.6H58.3z"/>
		</g>
		<g id="g21786">
			
				<path id="path21788" inkscape:connector-curvature="0" fill="none" stroke="#000000" stroke-width="1.1" stroke-linecap="round" stroke-linejoin="round" d="
				M58.3,39.3c0.1-0.2,0.1-0.4,0.1-0.6c0-1.4-1.4-2.5-3-2.5s-3,1.1-3,2.5c0,0.2,0,0.4,0.1,0.6H58.3z"/>
		</g>
	</g>
	<g id="g21790">
		<g id="g21792">
			<path id="path21794" inkscape:connector-curvature="0" fill="#FFFFFF" d="M68.9,39.3c0.1-0.2,0.1-0.4,0.1-0.6
				c0-1.4-1.4-2.5-3-2.5c-1.7,0-3,1.1-3,2.5c0,0.2,0,0.4,0.1,0.6H68.9z"/>
		</g>
		<g id="g21796">
			
				<path id="path21798" inkscape:connector-curvature="0" fill="none" stroke="#000000" stroke-width="1.1" stroke-linecap="round" stroke-linejoin="round" d="
				M68.9,39.3c0.1-0.2,0.1-0.4,0.1-0.6c0-1.4-1.4-2.5-3-2.5c-1.7,0-3,1.1-3,2.5c0,0.2,0,0.4,0.1,0.6H68.9z"/>
		</g>
	</g>
	
		<circle id="circle21800" sodipodi:cx="49.683998" sodipodi:cy="11.836" sodipodi:rx="2.7019999" sodipodi:ry="2.7019999" fill="#FFFFFF" stroke="#000000" stroke-width="1.1" cx="49.7" cy="11.8" r="2.7">
	</circle>
	
		<circle id="circle21802" sodipodi:cx="71.786003" sodipodi:cy="11.836" sodipodi:rx="2.7019999" sodipodi:ry="2.7019999" fill="#FFFFFF" stroke="#000000" stroke-width="1.1" cx="71.8" cy="11.8" r="2.7">
	</circle>
	
		<path id="path21804" inkscape:connector-curvature="0" fill="none" stroke="#000000" stroke-width="1.1" stroke-linecap="round" stroke-linejoin="round" d="
		M68.2,2.4c0,0,0,0-5.4-1.3l-2,6.3"/>
	
		<ellipse id="ellipse21806" sodipodi:cx="56.146" sodipodi:cy="28.417999" sodipodi:rx="4.4109998" sodipodi:ry="5.3239999" fill="#FFFFFF" stroke="#000000" stroke-width="1.1" cx="56.1" cy="28.4" rx="4.4" ry="5.3">
	</ellipse>
	
		<circle id="circle21808" sodipodi:cx="70.431" sodipodi:cy="2.789" sodipodi:rx="2.1300001" sodipodi:ry="2.1300001" fill="#FFFFFF" stroke="#000000" stroke-width="1.1" cx="70.4" cy="2.8" r="2.1">
	</circle>
	<g id="g21810">
		<g id="g21812">
			<path id="path21814" inkscape:connector-curvature="0" fill="#FFFFFF" d="M59.2,39.3h3c2.7-1.4,4.6-6.3,4.6-12.3
				c0-7-2.7-12.7-6.1-12.7c-3.4,0-6.1,5.7-6.1,12.7C54.6,32.9,56.5,37.9,59.2,39.3z"/>
		</g>
		<g id="g21816">
			<path id="path21818" inkscape:connector-curvature="0" fill="none" stroke="#000000" stroke-width="1.1" d="M59.2,39.3h3
				c2.7-1.4,4.6-6.3,4.6-12.3c0-7-2.7-12.7-6.1-12.7c-3.4,0-6.1,5.7-6.1,12.7C54.6,32.9,56.5,37.9,59.2,39.3z"/>
		</g>
	</g>
	
		<ellipse id="ellipse21820" sodipodi:cx="60.675999" sodipodi:cy="15.552" sodipodi:rx="12.238" sodipodi:ry="7.987" fill="#FFFFFF" stroke="#000000" stroke-width="1.1" cx="60.7" cy="15.6" rx="12.2" ry="8">
	</ellipse>
	
		<line id="line21822" fill="none" stroke="#000000" stroke-width="1.1" stroke-linecap="round" stroke-linejoin="round" x1="57.5" y1="39.3" x2="64.1" y2="39.3"/>
	<g id="g21824">
		<path id="circle21826" inkscape:connector-curvature="0" d="M56.4,12c-1.1,0-2,0.9-2,2s0.9,2,2,2c1.1,0,2-0.9,2-2S57.5,12,56.4,12
			z"/>
		<path id="circle21828" inkscape:connector-curvature="0" d="M65.1,12c-1.1,0-2,0.9-2,2s0.9,2,2,2c1.1,0,2-0.9,2-2S66.2,12,65.1,12
			z"/>
		
			<path id="path21830" inkscape:connector-curvature="0" fill="none" stroke="#000000" stroke-width="1.1" stroke-linecap="round" d="
			M56.5,19.2c1.1,1.1,2.8,1.3,4.2,1.3"/>
		
			<path id="path21832" inkscape:connector-curvature="0" fill="none" stroke="#000000" stroke-width="1.1" stroke-linecap="round" d="
			M65,19.2c-1.1,1.1-2.8,1.3-4.2,1.3"/>
	</g>
</g>
<g id="Layer_3" transform="translate(-56.49872,470.00082)">
</g>
</svg>
