<?xml version="1.0" encoding="utf-8"?>
<!-- Generator: Adobe Illustrator 16.0.0, SVG Export Plug-In . SVG Version: 6.00 Build 0)  -->
<!DOCTYPE svg PUBLIC "-//W3C//DTD SVG 1.1//EN" "http://www.w3.org/Graphics/SVG/1.1/DTD/svg11.dtd">
<svg version="1.1" id="Layer_1" xmlns="http://www.w3.org/2000/svg" xmlns:xlink="http://www.w3.org/1999/xlink" x="0px" y="0px"
	 width="1024px" height="1024px" viewBox="0 0 1024 1024" enable-background="new 0 0 1024 1024" xml:space="preserve">
<g id="Layer_2" transform="matrix(12.584949,0,0,12.584949,-584.34433,-1.3717583)">
	
		<ellipse id="ellipse21778" sodipodi:ry="5.3239999" sodipodi:rx="4.4109998" sodipodi:cy="28.417999" sodipodi:cx="65.245003" fill="#FFFFFF" stroke="#010101" stroke-width="12" cx="96.635" cy="58.137" rx="9.12" ry="11.007">
	</ellipse>
	<g id="g21780">
		<g id="g21782">
			<path id="path21784" inkscape:connector-curvature="0" fill="#FFFFFF" d="M82.282,80.604c0.13-0.407,0.223-0.827,0.223-1.272
				c0-2.81-2.814-5.092-6.285-5.092c-3.471,0-6.283,2.283-6.283,5.092c0,0.445,0.091,0.864,0.223,1.272H82.282z"/>
		</g>
		<g id="g21786">
			
				<path id="path21788" inkscape:connector-curvature="0" fill="none" stroke="#010101" stroke-width="12" stroke-linecap="round" stroke-linejoin="round" d="
				M82.282,80.604c0.13-0.407,0.223-0.827,0.223-1.272c0-2.81-2.814-5.092-6.285-5.092c-3.471,0-6.283,2.283-6.283,5.092
				c0,0.445,0.091,0.864,0.223,1.272H82.282z"/>
		</g>
	</g>
	<g id="g21790">
		<g id="g21792">
			<path id="path21794" inkscape:connector-curvature="0" fill="#FFFFFF" d="M104.293,80.604c0.128-0.407,0.221-0.827,0.221-1.272
				c0-2.81-2.814-5.092-6.287-5.092c-3.471,0-6.283,2.283-6.283,5.092c0,0.445,0.089,0.864,0.221,1.272H104.293z"/>
		</g>
		<g id="g21796">
			
				<path id="path21798" inkscape:connector-curvature="0" fill="none" stroke="#010101" stroke-width="12" stroke-linecap="round" stroke-linejoin="round" d="
				M104.293,80.604c0.128-0.407,0.221-0.827,0.221-1.272c0-2.81-2.814-5.092-6.287-5.092c-3.471,0-6.283,2.283-6.283,5.092
				c0,0.445,0.089,0.864,0.221,1.272H104.293z"/>
		</g>
	</g>
	
		<circle id="circle21800" sodipodi:ry="2.7019999" sodipodi:rx="2.7019999" sodipodi:cy="11.836" sodipodi:cx="49.683998" fill="#FFFFFF" stroke="#010101" stroke-width="12" cx="64.463" cy="23.853" r="5.586">
	</circle>
	
		<circle id="circle21802" sodipodi:ry="2.7019999" sodipodi:rx="2.7019999" sodipodi:cy="11.836" sodipodi:cx="71.786003" fill="#FFFFFF" stroke="#010101" stroke-width="12" cx="110.159" cy="23.853" r="5.586">
	</circle>
	
		<path id="path21804" inkscape:connector-curvature="0" fill="none" stroke="#010101" stroke-width="12" stroke-linecap="round" stroke-linejoin="round" d="
		M102.798,4.245c0,0,0,0-11.173-2.63l-4.106,12.98"/>
	
		<ellipse id="ellipse21806" sodipodi:ry="5.3239999" sodipodi:rx="4.4109998" sodipodi:cy="28.417999" sodipodi:cx="56.146" fill="#FFFFFF" stroke="#010101" stroke-width="12" cx="77.823" cy="58.137" rx="9.12" ry="11.007">
	</ellipse>
	
		<circle id="circle21808" sodipodi:ry="2.1300001" sodipodi:rx="2.1300001" sodipodi:cy="2.789" sodipodi:cx="70.431" fill="#FFFFFF" stroke="#010101" stroke-width="12" cx="107.357" cy="5.148" r="4.404">
	</circle>
	<g id="g21810">
		<g id="g21812">
			<path id="path21814" inkscape:connector-curvature="0" fill="#FFFFFF" d="M84.098,80.612h6.182
				c5.489-2.859,9.56-13.108,9.56-25.352c0-14.452-5.665-26.164-12.651-26.164c-6.988,0-12.651,11.715-12.651,26.164
				C74.538,67.504,78.606,77.753,84.098,80.612z"/>
		</g>
		<g id="g21816">
			<path id="path21818" inkscape:connector-curvature="0" fill="none" stroke="#010101" stroke-width="12" d="M84.098,80.612h6.182
				c5.489-2.859,9.56-13.108,9.56-25.352c0-14.452-5.665-26.164-12.651-26.164c-6.988,0-12.651,11.715-12.651,26.164
				C74.538,67.504,78.606,77.753,84.098,80.612z"/>
		</g>
	</g>
	
		<ellipse id="ellipse21820" sodipodi:ry="7.987" sodipodi:rx="12.238" sodipodi:cy="15.552" sodipodi:cx="60.675999" fill="#FFFFFF" stroke="#010101" stroke-width="12" cx="87.188" cy="31.536" rx="25.302" ry="16.513">
	</ellipse>
	
		<line id="line21822" fill="none" stroke="#010101" stroke-width="12" stroke-linecap="round" stroke-linejoin="round" x1="80.533" y1="80.604" x2="94.171" y2="80.604"/>
	<g id="g21824">
		<path id="circle21826" inkscape:connector-curvature="0" fill="#F04B23" d="M78.424,24.194c-2.247,0-4.133,1.885-4.133,4.133
			c0,2.247,1.885,4.071,4.133,4.071c2.247,0,4.071-1.824,4.071-4.071C82.495,26.079,80.671,24.194,78.424,24.194z"/>
		<path id="circle21828" inkscape:connector-curvature="0" fill="#F04B23" d="M96.259,24.194c-2.248,0-4.138,1.884-4.138,4.133
			c0,2.249,1.889,4.071,4.138,4.071c2.249,0,4.071-1.823,4.071-4.071C100.33,26.078,98.507,24.194,96.259,24.194z"/>
		<line fill="none" stroke="#010101" stroke-width="12" stroke-linecap="round" x1="78.22" y1="40.054" x2="95.556" y2="39.966"/>
	</g>
</g>
<g id="Layer_3" transform="translate(-56.49872,470.00082)">
</g>
</svg>
